<svg width="220" height="43" viewBox="0 0 220 43" fill="none" xmlns="http://www.w3.org/2000/svg">
<g filter="url(#filter0_d_1_3)">
<path d="M27.8723 25H16.7923V23.4C17.5923 23.4 18.1657 23.32 18.5123 23.16C18.8857 22.9733 19.1257 22.68 19.2323 22.28C19.339 21.8533 19.3923 21.2667 19.3923 20.52V14.28C19.3923 12.3867 19.1257 11.1067 18.5923 10.44C18.0857 9.77333 17.3657 9.44 16.4323 9.44C15.899 9.44 15.379 9.53333 14.8723 9.72C14.3923 9.90667 13.9257 10.16 13.4723 10.48C13.0457 10.8 12.6323 11.1867 12.2323 11.64L11.9523 9H12.7123C13.5923 8.14667 14.499 7.37333 15.4323 6.68C16.3923 5.96 17.5657 5.6 18.9523 5.6C20.7123 5.6 22.0857 6.05333 23.0723 6.96C24.059 7.86667 24.6723 9.13333 24.9123 10.76C24.9657 11.1867 25.0057 11.6267 25.0323 12.08C25.0857 12.5067 25.1123 12.9467 25.1123 13.4V20.52C25.1123 21.24 25.179 21.8133 25.3123 22.24C25.4457 22.6667 25.7123 22.9733 26.1123 23.16C26.5123 23.32 27.099 23.4 27.8723 23.4V25ZM15.5123 25H4.15234V23.4C5.03234 23.4 5.65901 23.32 6.03234 23.16C6.43234 22.9733 6.67234 22.6667 6.75234 22.24C6.85901 21.8133 6.91234 21.24 6.91234 20.52V10.24C6.91234 9.49333 6.77901 9.01333 6.51234 8.8C6.24568 8.56 5.83234 8.44 5.27234 8.44C4.92568 8.44 4.65901 8.45333 4.47234 8.48C4.28568 8.50667 4.19234 8.52 4.19234 8.52V6.88L10.3523 5.72H12.5123V9.56L12.6323 10.64V20.52C12.6323 21.24 12.6857 21.8133 12.7923 22.24C12.9257 22.6667 13.1923 22.9733 13.5923 23.16C13.9923 23.32 14.6323 23.4 15.5123 23.4V25ZM40.3523 25H29.2723V23.4C30.0723 23.4 30.6457 23.32 30.9923 23.16C31.3657 22.9733 31.6057 22.68 31.7123 22.28C31.819 21.8533 31.8723 21.2667 31.8723 20.52V14.28C31.8723 13.0267 31.7523 12.0533 31.5123 11.36C31.299 10.64 30.979 10.1467 30.5523 9.88C30.1257 9.58667 29.5923 9.44 28.9523 9.44C28.1257 9.44 27.3257 9.65333 26.5523 10.08C25.8057 10.48 25.1657 10.9867 24.6323 11.6L24.0323 9.24H24.7123C25.699 8.22667 26.7257 7.37333 27.7923 6.68C28.8857 5.96 30.099 5.6 31.4323 5.6C33.3257 5.6 34.819 6.24 35.9123 7.52C37.0323 8.8 37.5923 10.76 37.5923 13.4V20.52C37.5923 21.24 37.659 21.8133 37.7923 22.24C37.9257 22.6667 38.1923 22.9733 38.5923 23.16C38.9923 23.32 39.579 23.4 40.3523 23.4V25ZM43.8608 34.4C42.9541 34.4 42.1808 34.2 41.5408 33.8C40.9008 33.4 40.5808 32.7467 40.5808 31.84C40.5808 31.1467 40.7674 30.6267 41.1408 30.28C41.5141 29.9333 41.9808 29.76 42.5408 29.76C43.2074 29.76 43.8074 29.92 44.3408 30.24C44.9008 30.56 45.4341 30.72 45.9408 30.72C46.3941 30.72 46.8474 30.5333 47.3008 30.16C47.7541 29.8133 48.1541 29.3733 48.5008 28.84C48.8741 28.3067 49.1674 27.7467 49.3808 27.16C49.5941 26.5733 49.7008 26.0667 49.7008 25.64C49.7008 24.9467 49.4608 24.12 48.9808 23.16C48.5274 22.2 48.0741 21.2667 47.6208 20.36L41.9008 9.04C41.6874 8.58667 41.3941 8.24 41.0208 8C40.6474 7.76 40.1274 7.64 39.4608 7.64V6.08H50.2608V7.68C49.4341 7.68 48.8608 7.76 48.5408 7.92C48.2208 8.08 48.0608 8.34667 48.0608 8.72C48.0608 8.98667 48.1141 9.26667 48.2208 9.56C48.3541 9.82667 48.5008 10.12 48.6608 10.44L52.2608 17.68L53.0208 19.72H53.2208L56.8608 9.36C56.9141 9.2 56.9408 9.05333 56.9408 8.92C56.9674 8.78667 56.9808 8.68 56.9808 8.6C56.9808 8.25333 56.7941 8.01333 56.4208 7.88C56.0741 7.72 55.5941 7.64 54.9808 7.64V6.08H62.3808V7.64C61.6074 7.64 61.0341 7.8 60.6608 8.12C60.3141 8.44 59.9808 8.97333 59.6608 9.72L52.5408 25.64C51.6608 27.5867 50.7808 29.2133 49.9008 30.52C49.0208 31.8267 48.0874 32.8 47.1008 33.44C46.1408 34.08 45.0608 34.4 43.8608 34.4ZM63.1117 25.48L62.9517 17.92H64.7117C65.0851 19.7867 65.6451 21.1867 66.3917 22.12C67.1384 23.0533 68.2317 23.52 69.6717 23.52C70.6051 23.52 71.3651 23.3333 71.9517 22.96C72.5651 22.5867 72.8717 22.0267 72.8717 21.28C72.8717 20.8533 72.7517 20.4667 72.5117 20.12C72.2717 19.7467 71.8184 19.36 71.1517 18.96C70.5117 18.56 69.5651 18.0667 68.3117 17.48C67.1651 16.92 66.1917 16.3733 65.3917 15.84C64.6184 15.3067 64.0184 14.6667 63.5917 13.92C63.1917 13.1733 62.9917 12.2133 62.9917 11.04C62.9917 9.36 63.5917 8.04 64.7917 7.08C65.9917 6.09333 67.6717 5.6 69.8317 5.6C71.0051 5.6 71.9651 5.77333 72.7117 6.12C73.4584 6.46667 74.0051 6.74667 74.3517 6.96H74.5117L75.1117 5.96H76.7517L76.8717 12.48H75.1117C74.5784 10.56 73.9251 9.25333 73.1517 8.56C72.3784 7.84 71.4451 7.48 70.3517 7.48C69.4184 7.48 68.7384 7.69333 68.3117 8.12C67.8851 8.52 67.6717 9.01333 67.6717 9.6C67.6717 10.4533 68.0584 11.0933 68.8317 11.52C69.6051 11.92 70.6851 12.4667 72.0717 13.16C73.2184 13.6933 74.2317 14.24 75.1117 14.8C76.0184 15.3333 76.7251 15.9867 77.2317 16.76C77.7384 17.5067 77.9917 18.48 77.9917 19.68C77.9917 21.1733 77.6184 22.3467 76.8717 23.2C76.1251 24.0533 75.1517 24.6533 73.9517 25C72.7784 25.32 71.4984 25.48 70.1117 25.48C68.8851 25.48 67.9384 25.36 67.2717 25.12C66.6051 24.88 65.9917 24.6267 65.4317 24.36H65.2717L64.3917 25.48H63.1117ZM92.2089 33.8H79.6889V32.2C80.9422 32.2 81.7422 32 82.0889 31.6C82.4356 31.2 82.6089 30.44 82.6089 29.32V10.48C82.6089 9.68 82.5156 9.13333 82.3289 8.84C82.1689 8.52 81.7556 8.36 81.0889 8.36C80.8222 8.36 80.5422 8.37333 80.2489 8.4C79.9556 8.42667 79.8089 8.44 79.8089 8.44V6.76L85.9689 5.64H88.2489V8.92H88.4489C89.4889 7.88 90.4756 7.06667 91.4089 6.48C92.3689 5.86667 93.5022 5.56 94.8089 5.56C96.0889 5.56 97.2089 5.88 98.1689 6.52C99.1556 7.13333 99.9156 8.10667 100.449 9.44C100.982 10.7467 101.249 12.4533 101.249 14.56C101.249 16.8267 100.849 18.7733 100.049 20.4C99.2489 22.0267 98.1822 23.28 96.8489 24.16C95.5156 25.0133 94.0356 25.44 92.4089 25.44C91.6622 25.44 90.9689 25.36 90.3289 25.2C89.6889 25.0667 89.0622 24.8 88.4489 24.4H88.3289V29.04C88.3289 29.8933 88.4356 30.5467 88.6489 31C88.8622 31.4533 89.2489 31.76 89.8089 31.92C90.3689 32.08 91.1689 32.16 92.2089 32.16V33.8ZM91.4089 23.2C92.4489 23.2 93.3022 22.6533 93.9689 21.56C94.6622 20.44 95.0089 18.48 95.0089 15.68C95.0089 13.3867 94.7556 11.76 94.2489 10.8C93.7422 9.81333 92.9956 9.32 92.0089 9.32C91.2089 9.32 90.5022 9.54667 89.8889 10C89.2756 10.4267 88.7556 10.8533 88.3289 11.28V21.2C88.5156 21.4667 88.7422 21.76 89.0089 22.08C89.3022 22.4 89.6356 22.6667 90.0089 22.88C90.4089 23.0933 90.8756 23.2 91.4089 23.2ZM113.526 25.4C110.38 25.4 107.98 24.6 106.326 23C104.673 21.4 103.846 18.8667 103.846 15.4C103.846 13.5333 104.193 11.8667 104.886 10.4C105.58 8.90667 106.646 7.73333 108.086 6.88C109.553 6.02667 111.406 5.6 113.646 5.6C116.846 5.6 119.233 6.44 120.806 8.12C122.406 9.8 123.206 12.08 123.206 14.96C123.206 17.2267 122.833 19.1467 122.086 20.72C121.34 22.2667 120.246 23.44 118.806 24.24C117.393 25.0133 115.633 25.4 113.526 25.4ZM113.646 23.44C114.526 23.44 115.22 23.1467 115.726 22.56C116.233 21.9467 116.593 21.04 116.806 19.84C117.02 18.64 117.126 17.12 117.126 15.28C117.126 12.7733 116.82 10.8533 116.206 9.52C115.62 8.18667 114.66 7.52 113.326 7.52C112.046 7.52 111.153 8.2 110.646 9.56C110.166 10.8933 109.926 12.7067 109.926 15C109.926 17.8533 110.22 19.9733 110.806 21.36C111.393 22.7467 112.34 23.44 113.646 23.44ZM137.84 25H125.28V23.4C126.16 23.4 126.8 23.3333 127.2 23.2C127.627 23.04 127.907 22.76 128.04 22.36C128.174 21.96 128.24 21.3867 128.24 20.64V10.84C128.24 10.12 128.134 9.57333 127.92 9.2C127.707 8.8 127.254 8.6 126.56 8.6C126.16 8.6 125.854 8.61333 125.64 8.64C125.427 8.66667 125.32 8.68 125.32 8.68V6.96L131.6 5.72H133.88V9.88H134.04C134.76 8.94667 135.347 8.16 135.8 7.52C136.254 6.85333 136.734 6.34667 137.24 6C137.774 5.65333 138.454 5.48 139.28 5.48C140.32 5.48 141.094 5.77333 141.6 6.36C142.107 6.94667 142.36 7.74667 142.36 8.76C142.36 9.90667 142.107 10.7333 141.6 11.24C141.094 11.7467 140.534 12 139.92 12C139.334 12 138.827 11.8667 138.4 11.6C138 11.3067 137.654 11.0267 137.36 10.76C137.067 10.4667 136.814 10.32 136.6 10.32C136.174 10.32 135.734 10.4933 135.28 10.84C134.854 11.16 134.414 11.5867 133.96 12.12V20.36C133.96 21.2133 134.08 21.8667 134.32 22.32C134.587 22.7467 135 23.04 135.56 23.2C136.147 23.3333 136.907 23.4 137.84 23.4V25ZM156.729 20.52L157.729 21.64C157.196 22.36 156.636 23.0267 156.049 23.64C155.463 24.2267 154.743 24.6933 153.889 25.04C153.036 25.3867 151.903 25.56 150.489 25.56C148.943 25.56 147.769 25.1333 146.969 24.28C146.196 23.4267 145.809 21.8533 145.809 19.56V8.72H143.289V7.04C144.409 6.34667 145.463 5.49333 146.449 4.48C147.463 3.44 148.369 2.08 149.169 0.4H151.529V6.28H156.529V8.72H151.529V18.16C151.529 19.6267 151.676 20.6133 151.969 21.12C152.263 21.6 152.783 21.84 153.529 21.84C154.303 21.84 154.903 21.72 155.329 21.48C155.783 21.24 156.249 20.92 156.729 20.52ZM163.243 25.4C162.256 25.4 161.483 25.12 160.923 24.56C160.389 24 160.123 23.2667 160.123 22.36C160.123 21.4533 160.389 20.7333 160.923 20.2C161.483 19.64 162.269 19.36 163.283 19.36C164.296 19.36 165.056 19.64 165.563 20.2C166.096 20.7333 166.363 21.4533 166.363 22.36C166.363 23.2667 166.096 24 165.563 24.56C165.029 25.12 164.256 25.4 163.243 25.4ZM181.057 25.28H177.537L171.497 11C171.124 10.0667 170.764 9.36 170.417 8.88C170.097 8.4 169.737 8.08 169.337 7.92C168.937 7.76 168.471 7.68 167.937 7.68V6.08H179.177V7.68C178.351 7.68 177.764 7.78667 177.417 8C177.071 8.18667 176.897 8.45333 176.897 8.8C176.897 9.04 176.937 9.30667 177.017 9.6C177.097 9.86667 177.191 10.1333 177.297 10.4L180.177 17.4L181.057 19.92H181.377L182.337 17.32L185.377 10.24C185.377 10.24 185.417 10.1067 185.497 9.84C185.577 9.57333 185.617 9.22667 185.617 8.8C185.617 8.34667 185.444 8.05333 185.097 7.92C184.751 7.76 184.191 7.68 183.417 7.68V6.08H191.097V7.68C190.297 7.68 189.671 7.88 189.217 8.28C188.764 8.68 188.284 9.44 187.777 10.56L181.057 25.28ZM215.108 25H203.988V23.4C204.788 23.4 205.375 23.32 205.748 23.16C206.122 22.9733 206.362 22.68 206.468 22.28C206.575 21.8533 206.628 21.2667 206.628 20.52V14.28C206.628 13.0267 206.508 12.0533 206.268 11.36C206.028 10.64 205.668 10.1467 205.188 9.88C204.708 9.58667 204.108 9.44 203.388 9.44C202.775 9.44 202.228 9.53333 201.748 9.72C201.268 9.90667 200.815 10.16 200.388 10.48C199.962 10.8 199.522 11.1467 199.068 11.52L198.828 9H199.548C200.562 7.98667 201.535 7.17333 202.468 6.56C203.428 5.92 204.508 5.6 205.708 5.6C207.815 5.6 209.442 6.24 210.588 7.52C211.762 8.8 212.348 10.76 212.348 13.4V20.52C212.348 21.24 212.415 21.8133 212.548 22.24C212.682 22.6667 212.948 22.9733 213.348 23.16C213.748 23.32 214.335 23.4 215.108 23.4V25ZM202.348 25H190.988V23.4C191.868 23.4 192.495 23.32 192.868 23.16C193.268 22.9733 193.508 22.6667 193.588 22.24C193.695 21.8133 193.748 21.24 193.748 20.52V10.24C193.748 9.49333 193.615 9.01333 193.348 8.8C193.082 8.56 192.668 8.44 192.108 8.44C191.762 8.44 191.495 8.45333 191.308 8.48C191.122 8.50667 191.028 8.52 191.028 8.52V6.88L197.188 5.72H199.388V9.56L199.508 10.6V20.52C199.508 21.24 199.562 21.8133 199.668 22.24C199.775 22.6667 200.028 22.9733 200.428 23.16C200.828 23.32 201.468 23.4 202.348 23.4V25Z" fill="#FF3366"/>
</g>
<defs>
<filter id="filter0_d_1_3" x="0.152344" y="0.400002" width="218.956" height="42" filterUnits="userSpaceOnUse" color-interpolation-filters="sRGB">
<feFlood flood-opacity="0" result="BackgroundImageFix"/>
<feColorMatrix in="SourceAlpha" type="matrix" values="0 0 0 0 0 0 0 0 0 0 0 0 0 0 0 0 0 0 127 0" result="hardAlpha"/>
<feOffset dy="4"/>
<feGaussianBlur stdDeviation="2"/>
<feComposite in2="hardAlpha" operator="out"/>
<feColorMatrix type="matrix" values="0 0 0 0 0 0 0 0 0 0 0 0 0 0 0 0 0 0 0.25 0"/>
<feBlend mode="normal" in2="BackgroundImageFix" result="effect1_dropShadow_1_3"/>
<feBlend mode="normal" in="SourceGraphic" in2="effect1_dropShadow_1_3" result="shape"/>
</filter>
</defs>
</svg>
